# xmcd CD database file
#
# Track frame offsets:
#	150
#	11751
#	22917
#	40835
#	53821
#	69789
#	84658
#	94915
#	107527
#	116275
#	133706
#
# Disc length: 1960 seconds
#
# Revision: 0
# Processed by: cddbd v1.5.2PL0 Copyright (c) Steve Scherf et al.
# Submitted via: CDex 1.70beta2
#
DISCID=8007a60b
DTITLE=Frank Muschalle Trio - the night of the trio
DYEAR=1900
DGENRE=Jazz
TTITLE0=Broken Hearted Blues
TTITLE1=New Style Baby
TTITLE2=Blues For The Night Owls
TTITLE3=Long, Long Journey
TTITLE4=Slotcar Boogie
TTITLE5=Mama, Pin A Rose On Me
TTITLE6=You, Cindy Lou
TTITLE7=Gorse Alley Crawl
TTITLE8=Look Out For Yourself
TTITLE9=Nobody's Loving Me
TTITLE10=Lomito Jive
EXTD=
EXTT0=
EXTT1=
EXTT2=
EXTT3=
EXTT4=
EXTT5=
EXTT6=
EXTT7=
EXTT8=
EXTT9=
EXTT10=
PLAYORDER=
